<svg id="visual" viewBox="0 0 900 600" width="900" height="600" xmlns="http://www.w3.org/2000/svg" xmlns:xlink="http://www.w3.org/1999/xlink" version="1.1"><rect x="0" y="0" width="900" height="600" fill="#001220"></rect><defs><linearGradient id="grad1_0" x1="33.3%" y1="0%" x2="100%" y2="100%"><stop offset="20%" stop-color="#fbae3c" stop-opacity="1"></stop><stop offset="80%" stop-color="#fbae3c" stop-opacity="1"></stop></linearGradient></defs><defs><linearGradient id="grad1_1" x1="33.3%" y1="0%" x2="100%" y2="100%"><stop offset="20%" stop-color="#fbae3c" stop-opacity="1"></stop><stop offset="80%" stop-color="#cc5867" stop-opacity="1"></stop></linearGradient></defs><defs><linearGradient id="grad1_2" x1="33.3%" y1="0%" x2="100%" y2="100%"><stop offset="20%" stop-color="#593762" stop-opacity="1"></stop><stop offset="80%" stop-color="#cc5867" stop-opacity="1"></stop></linearGradient></defs><defs><linearGradient id="grad1_3" x1="33.3%" y1="0%" x2="100%" y2="100%"><stop offset="20%" stop-color="#593762" stop-opacity="1"></stop><stop offset="80%" stop-color="#001220" stop-opacity="1"></stop></linearGradient></defs><defs><linearGradient id="grad2_0" x1="0%" y1="0%" x2="66.7%" y2="100%"><stop offset="20%" stop-color="#fbae3c" stop-opacity="1"></stop><stop offset="80%" stop-color="#fbae3c" stop-opacity="1"></stop></linearGradient></defs><defs><linearGradient id="grad2_1" x1="0%" y1="0%" x2="66.7%" y2="100%"><stop offset="20%" stop-color="#cc5867" stop-opacity="1"></stop><stop offset="80%" stop-color="#fbae3c" stop-opacity="1"></stop></linearGradient></defs><defs><linearGradient id="grad2_2" x1="0%" y1="0%" x2="66.7%" y2="100%"><stop offset="20%" stop-color="#cc5867" stop-opacity="1"></stop><stop offset="80%" stop-color="#593762" stop-opacity="1"></stop></linearGradient></defs><defs><linearGradient id="grad2_3" x1="0%" y1="0%" x2="66.7%" y2="100%"><stop offset="20%" stop-color="#001220" stop-opacity="1"></stop><stop offset="80%" stop-color="#593762" stop-opacity="1"></stop></linearGradient></defs><g transform="translate(900, 0)"><path d="M0 216.3C-21.6 198.7 -43.1 181 -71.9 173.7C-100.7 166.4 -136.8 169.5 -153 153C-169.2 136.5 -165.5 100.3 -172.8 71.6C-180 42.8 -198.2 21.4 -216.3 0L0 0Z" fill="#232745"></path><path d="M0 162.2C-16.2 149 -32.4 135.7 -54 130.3C-75.6 124.8 -102.6 127.1 -114.7 114.7C-126.9 102.3 -124.1 75.2 -129.6 53.7C-135 32.1 -148.6 16 -162.2 0L0 0Z" fill="#96446e"></path><path d="M0 108.2C-10.8 99.3 -21.6 90.5 -36 86.8C-50.4 83.2 -68.4 84.7 -76.5 76.5C-84.6 68.2 -82.8 50.2 -86.4 35.8C-90 21.4 -99.1 10.7 -108.2 0L0 0Z" fill="#f17c53"></path><path d="M0 54.1C-5.4 49.7 -10.8 45.2 -18 43.4C-25.2 41.6 -34.2 42.4 -38.2 38.2C-42.3 34.1 -41.4 25.1 -43.2 17.9C-45 10.7 -49.5 5.3 -54.1 0L0 0Z" fill="#fbae3c"></path></g><g transform="translate(0, 600)"><path d="M0 -216.3C26.6 -209.4 53.2 -202.4 80 -193.1C106.8 -183.8 133.7 -172.2 153 -153C172.2 -133.7 183.8 -106.8 193.1 -80C202.4 -53.2 209.4 -26.6 216.3 0L0 0Z" fill="#232745"></path><path d="M0 -162.2C20 -157 39.9 -151.8 60 -144.8C80.1 -137.9 100.3 -129.2 114.7 -114.7C129.2 -100.3 137.9 -80.1 144.8 -60C151.8 -39.9 157 -20 162.2 0L0 0Z" fill="#96446e"></path><path d="M0 -108.2C13.3 -104.7 26.6 -101.2 40 -96.5C53.4 -91.9 66.9 -86.1 76.5 -76.5C86.1 -66.9 91.9 -53.4 96.5 -40C101.2 -26.6 104.7 -13.3 108.2 0L0 0Z" fill="#f17c53"></path><path d="M0 -54.1C6.7 -52.3 13.3 -50.6 20 -48.3C26.7 -46 33.4 -43.1 38.2 -38.2C43.1 -33.4 46 -26.7 48.3 -20C50.6 -13.3 52.3 -6.7 54.1 0L0 0Z" fill="#fbae3c"></path></g></svg>