<svg id="visual" viewBox="0 0 900 600" width="900" height="600" xmlns="http://www.w3.org/2000/svg" xmlns:xlink="http://www.w3.org/1999/xlink" version="1.1"><rect x="0" y="0" width="900" height="600" fill="#140021"></rect><path d="M0 443L129 443L129 467L257 467L257 447L386 447L386 457L514 457L514 447L643 447L643 474L771 474L771 475L900 475L900 460L900 601L900 601L771 601L771 601L643 601L643 601L514 601L514 601L386 601L386 601L257 601L257 601L129 601L129 601L0 601Z" fill="#9900ff"></path><path d="M0 458L129 458L129 458L257 458L257 461L386 461L386 476L514 476L514 461L643 461L643 482L771 482L771 476L900 476L900 478L900 601L900 601L771 601L771 601L643 601L643 601L514 601L514 601L386 601L386 601L257 601L257 601L129 601L129 601L0 601Z" fill="#8f00ee"></path><path d="M0 469L129 469L129 509L257 509L257 488L386 488L386 488L514 488L514 469L643 469L643 476L771 476L771 476L900 476L900 477L900 601L900 601L771 601L771 601L643 601L643 601L514 601L514 601L386 601L386 601L257 601L257 601L129 601L129 601L0 601Z" fill="#8500de"></path><path d="M0 505L129 505L129 510L257 510L257 501L386 501L386 506L514 506L514 498L643 498L643 495L771 495L771 497L900 497L900 526L900 601L900 601L771 601L771 601L643 601L643 601L514 601L514 601L386 601L386 601L257 601L257 601L129 601L129 601L0 601Z" fill="#7c00ce"></path><path d="M0 511L129 511L129 539L257 539L257 543L386 543L386 521L514 521L514 518L643 518L643 510L771 510L771 515L900 515L900 531L900 601L900 601L771 601L771 601L643 601L643 601L514 601L514 601L386 601L386 601L257 601L257 601L129 601L129 601L0 601Z" fill="#7200be"></path><path d="M0 553L129 553L129 538L257 538L257 558L386 558L386 541L514 541L514 529L643 529L643 533L771 533L771 546L900 546L900 551L900 601L900 601L771 601L771 601L643 601L643 601L514 601L514 601L386 601L386 601L257 601L257 601L129 601L129 601L0 601Z" fill="#6900ae"></path><path d="M0 557L129 557L129 548L257 548L257 558L386 558L386 551L514 551L514 567L643 567L643 563L771 563L771 569L900 569L900 564L900 601L900 601L771 601L771 601L643 601L643 601L514 601L514 601L386 601L386 601L257 601L257 601L129 601L129 601L0 601Z" fill="#5f009f"></path><path d="M0 579L129 579L129 583L257 583L257 582L386 582L386 569L514 569L514 586L643 586L643 579L771 579L771 574L900 574L900 572L900 601L900 601L771 601L771 601L643 601L643 601L514 601L514 601L386 601L386 601L257 601L257 601L129 601L129 601L0 601Z" fill="#560090"></path></svg>