<svg id="visual" viewBox="0 0 900 600" width="900" height="600" xmlns="http://www.w3.org/2000/svg" xmlns:xlink="http://www.w3.org/1999/xlink" version="1.1"><rect width="900" height="600" fill="#8E204A"></rect><g><g transform="translate(284 89)"><path d="M0 -83L58.7 -58.7L83 0L58.7 58.7L0 83L-58.7 58.7L-83 0L-58.7 -58.7Z" fill="#35D0F8"></path></g><g transform="translate(791 257)"><path d="M0 -39L27.6 -27.6L39 0L27.6 27.6L0 39L-27.6 27.6L-39 0L-27.6 -27.6Z" fill="#35D0F8"></path></g><g transform="translate(764 33)"><path d="M0 -71L50.2 -50.2L71 0L50.2 50.2L0 71L-50.2 50.2L-71 0L-50.2 -50.2Z" fill="#35D0F8"></path></g><g transform="translate(491 86)"><path d="M0 -33L23.3 -23.3L33 0L23.3 23.3L0 33L-23.3 23.3L-33 0L-23.3 -23.3Z" fill="#35D0F8"></path></g></g></svg>