<svg id="visual" viewBox="0 0 960 540" width="960" height="540" xmlns="http://www.w3.org/2000/svg" xmlns:xlink="http://www.w3.org/1999/xlink" version="1.1"><path d="M0 0L80 14.5C160 29 320 58 480 70.8C640 83.7 800 80.3 880 78.7L960 77L960 0L880 0C800 0 640 0 480 0C320 0 160 0 80 0L0 0Z" fill="#0038e6"></path><path d="M0 222L80 227.5C160 233 320 244 480 249.5C640 255 800 255 880 255L960 255L960 75L880 76.7C800 78.3 640 81.7 480 69.2C320 56.7 160 28.3 80 14.2L0 0Z" fill="#050991"></path><path d="M0 455L80 461.2C160 467.3 320 479.7 480 460.7C640 441.7 800 391.3 880 366.2L960 341L960 253L880 253C800 253 640 253 480 247.5C320 242 160 231 80 225.5L0 220Z" fill="#050991"></path><path d="M0 541L80 541C160 541 320 541 480 541C640 541 800 541 880 541L960 541L960 339L880 364.2C800 389.3 640 439.7 480 458.7C320 477.7 160 465.3 80 459.2L0 453Z" fill="#0038e6"></path></svg>